<svg xmlns="http://www.w3.org/2000/svg" xmlns:xlink="http://www.w3.org/1999/xlink" version="1.1" width="256" height="256" viewBox="0 0 256 256" xml:space="preserve">
<desc>Created with Fabric.js 1.7.22</desc>
<defs>
</defs>
<g transform="translate(128 128) scale(0.72 0.72)" style="">
	<g style="stroke: none; stroke-width: 0; stroke-dasharray: none; stroke-linecap: butt; stroke-linejoin: miter; stroke-miterlimit: 10; fill: none; fill-rule: nonzero; opacity: 1;" transform="translate(-175.05 -175.05000000000004) scale(3.89 3.89)" >
	<rect x="0.24" y="61.06" rx="0" ry="0" width="29.36" height="2" style="stroke: none; stroke-width: 1; stroke-dasharray: none; stroke-linecap: butt; stroke-linejoin: miter; stroke-miterlimit: 10; fill: rgb(226,225,224); fill-rule: nonzero; opacity: 1;" transform=" matrix(0.4013 -0.9159 0.9159 0.4013 -47.9167 50.8202) "/>
	<path d="M 20.523 16.089 c -1.523 2.075 -2.902 4.42 -4.039 7.014 c -5.173 11.807 -3.543 23.93 3.641 27.078 c 7.184 3.148 17.202 -3.871 22.376 -15.678 c 1.137 -2.594 1.926 -5.198 2.419 -7.723 L 20.523 16.089 z" style="stroke: none; stroke-width: 1; stroke-dasharray: none; stroke-linecap: butt; stroke-linejoin: miter; stroke-miterlimit: 10; fill: rgb(242,242,242); fill-rule: nonzero; opacity: 1;" transform=" matrix(1 0 0 1 0 0) " stroke-linecap="round" />
	<path d="M 23.298 26.088 c 1.137 -2.594 2.361 -5.007 3.614 -7.199 l -6.389 -2.8 c -1.523 2.075 -2.902 4.42 -4.039 7.014 c -5.173 11.807 -3.543 23.93 3.641 27.078 C 16.704 48.681 18.124 37.895 23.298 26.088 z" style="stroke: none; stroke-width: 1; stroke-dasharray: none; stroke-linecap: butt; stroke-linejoin: miter; stroke-miterlimit: 10; fill: rgb(226,225,224); fill-rule: nonzero; opacity: 1;" transform=" matrix(1 0 0 1 0 0) " stroke-linecap="round" />
	<polygon points="9.22,75.06 12.58,78.24 15.93,81.42 7.96,77.94 0,74.44 4.61,74.75 " style="stroke: none; stroke-width: 1; stroke-dasharray: none; stroke-linecap: butt; stroke-linejoin: miter; stroke-miterlimit: 10; fill: rgb(226,225,224); fill-rule: nonzero; opacity: 1;" transform="  matrix(1 0 0 1 0 0) "/>
	<path d="M 38.343 30.711 c 0.959 2.424 -3.136 4.168 -8.091 4.168 H 13.536 c -0.457 7.227 1.847 13.224 6.589 15.302 c 7.106 3.114 16.977 -3.728 22.197 -15.302 C 42.982 33.009 39.793 30.485 38.343 30.711 z" style="stroke: none; stroke-width: 1; stroke-dasharray: none; stroke-linecap: butt; stroke-linejoin: miter; stroke-miterlimit: 10; fill: rgb(225,57,25); fill-rule: nonzero; opacity: 1;" transform=" matrix(1 0 0 1 0 0) " stroke-linecap="round" />
	<path d="M 20.066 34.879 h -6.53 c -0.457 7.227 1.847 13.224 6.589 15.302 C 17.587 49.068 17.719 42.839 20.066 34.879 z" style="stroke: none; stroke-width: 1; stroke-dasharray: none; stroke-linecap: butt; stroke-linejoin: miter; stroke-miterlimit: 10; fill: rgb(209,51,21); fill-rule: nonzero; opacity: 1;" transform=" matrix(1 0 0 1 0 0) " stroke-linecap="round" />
	<rect x="74.08" y="39.87" rx="0" ry="0" width="2" height="29.36" style="stroke: none; stroke-width: 1; stroke-dasharray: none; stroke-linecap: butt; stroke-linejoin: miter; stroke-miterlimit: 10; fill: rgb(226,225,224); fill-rule: nonzero; opacity: 1;" transform=" matrix(0.9159 -0.4013 0.4013 0.9159 -15.5815 34.7189) "/>
	<path d="M 69.477 8.576 c 1.523 2.075 2.902 4.42 4.039 7.014 c 5.173 11.807 3.543 23.93 -3.641 27.078 c -7.184 3.148 -17.202 -3.871 -22.376 -15.678 c -1.137 -2.594 -1.926 -5.198 -2.419 -7.723 L 69.477 8.576 z" style="stroke: none; stroke-width: 1; stroke-dasharray: none; stroke-linecap: butt; stroke-linejoin: miter; stroke-miterlimit: 10; fill: rgb(226,225,224); fill-rule: nonzero; opacity: 1;" transform=" matrix(1 0 0 1 0 0) " stroke-linecap="round" />
	<path d="M 66.702 18.575 c -1.137 -2.594 -2.361 -5.007 -3.614 -7.199 l 6.389 -2.8 c 1.523 2.075 2.902 4.42 4.039 7.014 c 5.173 11.807 3.543 23.93 -3.641 27.078 C 73.296 41.168 71.876 30.381 66.702 18.575 z" style="stroke: none; stroke-width: 1; stroke-dasharray: none; stroke-linecap: butt; stroke-linejoin: miter; stroke-miterlimit: 10; fill: rgb(242,242,242); fill-rule: nonzero; opacity: 1;" transform=" matrix(1 0 0 1 0 0) " stroke-linecap="round" />
	<polygon points="80.78,67.55 77.42,70.73 74.07,73.91 82.04,70.42 90,66.93 85.39,67.24 " style="stroke: none; stroke-width: 1; stroke-dasharray: none; stroke-linecap: butt; stroke-linejoin: miter; stroke-miterlimit: 10; fill: rgb(226,225,224); fill-rule: nonzero; opacity: 1;" transform="  matrix(1 0 0 1 0 0) "/>
	<path d="M 76.464 27.365 H 59.749 c -4.674 0 -7.178 -1.967 -6.487 -5.099 c -1.45 -0.226 -6.244 3.23 -5.584 5.099 c 5.22 11.574 15.091 18.415 22.197 15.302 C 74.617 40.589 76.921 34.592 76.464 27.365 z" style="stroke: none; stroke-width: 1; stroke-dasharray: none; stroke-linecap: butt; stroke-linejoin: miter; stroke-miterlimit: 10; fill: rgb(209,51,21); fill-rule: nonzero; opacity: 1;" transform=" matrix(1 0 0 1 0 0) " stroke-linecap="round" />
	<path d="M 69.934 27.365 h 6.53 c 0.457 7.227 -1.847 13.224 -6.589 15.302 C 72.413 41.555 72.281 35.326 69.934 27.365 z" style="stroke: none; stroke-width: 1; stroke-dasharray: none; stroke-linecap: butt; stroke-linejoin: miter; stroke-miterlimit: 10; fill: rgb(225,57,25); fill-rule: nonzero; opacity: 1;" transform=" matrix(1 0 0 1 0 0) " stroke-linecap="round" />
</g>
</g>
</svg>